<svg aria-hidden="true" style="position:absolute;width:0;height:0" xmlns="http://www.w3.org/2000/svg" overflow="hidden">
<defs>
<symbol id="icon-arrow-right" viewBox="0 0 24 16" >
<path d="M16 -6.99382e-07L14.59 1.41L20.17 7L-3.93402e-07 7L-3.0598e-07 9L20.17 9L14.58 14.58L16 16L24 8L16 -6.99382e-07Z" />
</symbol>
<symbol id="icon-account" viewBox="0 0 32 32"><path fill="var(--color1, #fff)" d="M16 0C7.168 0 0 7.168 0 16s7.168 16 16 16 16-7.168 16-16S24.832 0 16 0zM8.112 26.048C8.8 24.608 12.992 23.2 16 23.2s7.216 1.408 7.888 2.848C21.712 27.776 18.976 28.8 16 28.8s-5.712-1.024-7.888-2.752zm18.064-2.32C23.888 20.944 18.336 20 16 20s-7.888.944-10.176 3.728A12.72 12.72 0 0 1 3.2 16C3.2 8.944 8.944 3.2 16 3.2S28.8 8.944 28.8 16a12.72 12.72 0 0 1-2.624 7.728zM16 6.4c-3.104 0-5.6 2.496-5.6 5.6s2.496 5.6 5.6 5.6c3.104 0 5.6-2.496 5.6-5.6S19.104 6.4 16 6.4zm0 8c-1.328 0-2.4-1.072-2.4-2.4s1.072-2.4 2.4-2.4c1.328 0 2.4 1.072 2.4 2.4s-1.072 2.4-2.4 2.4z"/></symbol><symbol id="icon-arrow" viewBox="0 0 21 32"><path fill="var(--color1, #fff)" d="M21.333 21.333l-1.88-1.88L12 26.893V0H9.333v26.893l-7.44-7.453L0 21.333 10.667 32l10.667-10.667z"/></symbol><symbol id="icon-instagram" viewBox="0 0 32 32"><path fill="var(--color1, #fff)" d="M9.28 0h13.44A9.28 9.28 0 0 1 32 9.28v13.44A9.28 9.28 0 0 1 22.72 32H9.28A9.28 9.28 0 0 1 0 22.72V9.28A9.28 9.28 0 0 1 9.28 0zm-.32 3.2A5.76 5.76 0 0 0 3.2 8.96v14.08a5.76 5.76 0 0 0 5.76 5.76h14.08a5.76 5.76 0 0 0 5.76-5.76V8.96a5.76 5.76 0 0 0-5.76-5.76H8.96zM24.4 5.6a2 2 0 1 1 .001 3.999A2 2 0 0 1 24.4 5.6zM16 8a8 8 0 1 1 0 16 8 8 0 0 1 0-16zm0 3.2a4.8 4.8 0 1 0 0 9.6 4.8 4.8 0 0 0 0-9.6z"/></symbol><symbol id="icon-twitter" viewBox="0 0 41 32"><path fill="var(--color1, #fff)" d="M40.394 3.788a16.131 16.131 0 0 1-4.64 1.272A8.103 8.103 0 0 0 39.306.591a16.164 16.164 0 0 1-5.13 1.96A8.068 8.068 0 0 0 28.28 0a8.08 8.08 0 0 0-8.079 8.078c0 .633.072 1.25.209 1.841-6.714-.337-12.667-3.553-16.651-8.441a8.044 8.044 0 0 0-1.094 4.061 8.074 8.074 0 0 0 3.594 6.724A8.036 8.036 0 0 1 2.6 11.252l-.001.102a8.083 8.083 0 0 0 6.48 7.921 8.076 8.076 0 0 1-3.648.138 8.086 8.086 0 0 0 7.546 5.61 16.207 16.207 0 0 1-10.033 3.458c-.652 0-1.295-.038-1.927-.113a22.865 22.865 0 0 0 12.383 3.63c14.859 0 22.985-12.31 22.985-22.985 0-.35-.008-.699-.024-1.045a16.406 16.406 0 0 0 4.031-4.182z"/>
</symbol>
</defs>
</svg>